<svg xmlns="http://www.w3.org/2000/svg" xmlns:xlink="http://www.w3.org/1999/xlink" viewBox="0 0 1920 1080">
  <defs>
    <style>
      .cls-1 {
        clip-path: url(#clip-Web_1920_1);
      }

      .cls-2 {
        opacity: 0.1;
      }

      .cls-3 {
        fill: #ff9123;
      }

      .cls-4 {
        fill: #fc6500;
      }

      .cls-5 {
        opacity: 0.5;
      }

      .cls-6 {
        fill: rgba(255,145,35,0.67);
      }

      .cls-7 {
        fill: none;
        stroke: #fff;
        stroke-miterlimit: 10;
      }

      .cls-8 {
        fill: #fff;
      }
    </style>
    <clipPath id="clip-Web_1920_1">
      <rect width="1920" height="1080"/>
    </clipPath>
  </defs>
  <g id="Web_1920_1" data-name="Web 1920 – 1" class="cls-1">
    <rect class="cls-8" width="1920" height="1080"/>
    <g id="Group_5" data-name="Group 5" class="cls-2" transform="translate(982.992 -43.003)">
      <path id="Path_1" data-name="Path 1" class="cls-3" d="M946.074,50.465C929.228,64.3,921.7,86.216,915.126,107q-22.1,69.949-41.33,140.837c-18.688,68.649-35.661,138.815-69.877,201.27S719.851,563.328,670.54,614.48L492.9,798.652c-54.89,56.931-113.446,122.636-112.4,201.722.9,68.613,48.859,129.48,107.542,164.906s127.259,49.925,194.373,63.864c34.072,7.078,70.238,14.03,102.919,2.257,39.254-14.12,64.839-51.947,100.716-73.235,64.37-38.224,145.929-16.72,218.044,3.322s157.087,35.245,215.571-11.448c84.863-67.764,48.282-204.286,86.181-306.049,35.968-96.582,135.42-152.122,200.693-231.857,145.82-178.086,82.064-425.454-119.17-525.3-65.941-32.627-130.942-30.948-202.462-36.094C1195.735,44.344,1022.939-12.677,946.074,50.465Z" transform="translate(-96.48 -21)"/>
    </g>
    <g id="Group_7" data-name="Group 7" class="cls-2" transform="matrix(0.391, -0.921, 0.921, 0.391, -849.275, 1868.948)">
      <path id="Path_1-2" data-name="Path 1" class="cls-4" d="M946.074,50.465C929.228,64.3,921.7,86.216,915.126,107q-22.1,69.949-41.33,140.837c-18.688,68.649-35.661,138.815-69.877,201.27S719.851,563.328,670.54,614.48L492.9,798.652c-54.89,56.931-113.446,122.636-112.4,201.722.9,68.613,48.859,129.48,107.542,164.906s127.259,49.925,194.373,63.864c34.072,7.078,70.238,14.03,102.919,2.257,39.254-14.12,64.839-51.947,100.716-73.235,64.37-38.224,145.929-16.72,218.044,3.322s157.087,35.245,215.571-11.448c84.863-67.764,48.282-204.286,86.181-306.049,35.968-96.582,135.42-152.122,200.693-231.857,145.82-178.086,82.064-425.454-119.17-525.3-65.941-32.627-130.942-30.948-202.462-36.094C1195.735,44.344,1022.939-12.677,946.074,50.465Z" transform="translate(-96.48 -21)"/>
    </g>
    <g id="Group_6" data-name="Group 6" class="cls-5" transform="translate(1922.768 731.449) rotate(-159)">
      <path id="Path_2" data-name="Path 2" class="cls-6" d="M96.488,346.292s90.985-41.7,52.1-134.842S250.485,86,250.485,86s27.576,90.693-24.233,151.089S154.455,397.754,96.488,346.292Z" transform="translate(-96.48 -21)"/>
      <path id="Path_3" data-name="Path 3" class="cls-7" d="M264.065,86s-38.572,60.241-58.035,138.6S154.88,367.631,109.8,344.816" transform="translate(-109.368 -21)"/>
    </g>
    <g id="Group_8" data-name="Group 8" class="cls-5" transform="translate(590.039 914.714) rotate(131)">
      <path id="Path_2-2" data-name="Path 2" class="cls-6" d="M242.6,346.292s-82.4-41.7-47.187-134.842S103.128,86,103.128,86s-24.975,90.693,21.948,151.089S190.1,397.754,242.6,346.292Z" transform="translate(-96.48 -21)"/>
      <path id="Path_3-2" data-name="Path 3" class="cls-7" d="M109.8,86s34.767,60.241,52.31,138.6,46.1,143.028,86.738,120.212" transform="translate(-103.152 -21)"/>
    </g>
  </g>
</svg>
